<?xml version="1.0" standalone="no"?>
<!DOCTYPE svg PUBLIC "-//W3C//DTD SVG 20010904//EN"
 "http://www.w3.org/TR/2001/REC-SVG-20010904/DTD/svg10.dtd">
<svg version="1.0" xmlns="http://www.w3.org/2000/svg"
 width="1280.000000pt" height="1280.000000pt" viewBox="0 0 1280.000000 1280.000000"
 preserveAspectRatio="xMidYMid meet">
<metadata>
Created by potrace 1.11, written by Peter Selinger 2001-2013
</metadata>
<g transform="translate(0.000000,1280.000000) scale(0.100000,-0.100000)"
fill="#000000" stroke="none">
<path d="M6783 12790 c-13 -5 -23 -7 -23 -5 0 3 -22 -9 -49 -25 -60 -37 -113
-101 -129 -156 -11 -37 -15 -41 -42 -40 -29 1 -30 2 -30 50 0 43 -2 48 -20 43
-11 -3 -20 -2 -20 3 0 4 -17 11 -37 15 -34 6 -40 3 -72 -32 -46 -49 -48 -58
-36 -148 7 -58 7 -57 62 -75 45 -14 73 -4 73 26 0 20 40 28 57 11 14 -13 13
-23 -7 -88 -32 -109 -33 -112 -63 -113 -23 -1 -27 3 -28 26 -1 15 -3 33 -4 38
-1 6 -3 14 -4 18 0 5 -20 14 -42 21 -99 30 -156 -52 -133 -191 6 -31 12 -39
45 -52 55 -22 68 -20 87 14 19 33 30 36 55 18 16 -12 15 -20 -10 -103 -15 -49
-28 -92 -30 -94 -2 -2 -13 -5 -26 -6 -24 -2 -35 15 -36 56 -1 27 -26 43 -81
53 -52 8 -110 -72 -104 -145 5 -74 17 -94 65 -108 42 -13 43 -12 71 19 28 33
53 35 64 5 4 -9 -4 -48 -16 -87 -12 -38 -23 -78 -24 -87 -2 -9 -10 -15 -19
-15 -10 1 -24 2 -33 3 -10 1 -14 7 -11 16 4 8 2 17 -4 21 -7 4 -6 10 1 19 14
17 -4 31 -62 45 -44 11 -48 11 -72 -14 -14 -14 -26 -29 -26 -35 0 -5 -5 -11
-10 -13 -14 -4 -19 -83 -8 -135 7 -30 14 -43 26 -43 9 0 29 -7 44 -14 26 -14
29 -13 56 19 21 26 33 33 50 28 22 -5 25 -25 9 -63 -4 -8 -8 -24 -10 -35 -10
-55 -31 -104 -49 -108 -26 -7 -46 17 -42 52 3 23 -2 33 -16 41 -11 6 -20 8
-20 5 0 -3 -15 1 -34 9 -32 13 -35 12 -63 -13 -48 -42 -56 -66 -53 -165 1 -31
19 -56 48 -67 40 -16 72 -21 72 -11 0 16 37 52 52 52 35 0 38 -24 14 -103 -13
-42 -21 -77 -18 -77 19 0 -23 -24 -43 -26 -20 -1 -25 4 -26 23 -1 12 -2 31 -3
41 -1 18 -31 35 -83 45 -29 6 -36 2 -67 -35 -39 -45 -46 -79 -30 -152 9 -46
13 -50 56 -67 l46 -18 27 34 c26 36 40 39 63 18 11 -10 9 -25 -8 -84 -30 -99
-32 -108 -35 -162 -3 -62 11 -92 55 -114 83 -43 133 -118 132 -198 -1 -27 -3
-153 -6 -280 -3 -126 -8 -345 -11 -485 -2 -140 -7 -361 -10 -490 -13 -557 -22
-1004 -30 -1390 -3 -157 -7 -382 -10 -500 -3 -118 -8 -327 -11 -465 -3 -137
-6 -293 -8 -345 -1 -55 2 -101 8 -109 8 -11 8 -13 -1 -8 -8 5 -11 -8 -11 -45
1 -56 -10 -605 -17 -845 -3 -119 -7 -148 -25 -183 -31 -61 -106 -132 -175
-166 -54 -26 -70 -29 -160 -29 -83 0 -111 4 -164 25 -116 46 -221 169 -284
335 -24 64 -61 193 -73 255 -3 14 -7 32 -9 40 -2 8 -7 31 -10 50 -3 19 -10 60
-17 90 -6 30 -12 65 -13 77 -2 12 -7 27 -11 34 -5 9 -2 10 9 6 19 -7 36 35 32
77 -3 26 16 42 63 52 30 6 21 14 -55 52 -122 61 -121 61 -116 7 4 -41 2 -45
-18 -45 -12 0 -19 -3 -16 -7 13 -12 -16 -33 -46 -33 -17 0 -50 -9 -74 -21 -47
-23 -134 -112 -155 -159 -7 -16 -16 -30 -19 -30 -9 0 -88 -171 -93 -202 -3
-15 -7 -31 -10 -36 -18 -30 -27 -342 -13 -465 10 -84 37 -247 53 -317 3 -14 7
-38 10 -55 3 -16 8 -37 11 -45 3 -8 8 -25 10 -38 7 -42 64 -255 110 -412 25
-85 47 -164 50 -175 3 -11 7 -27 10 -35 2 -8 5 -17 5 -20 1 -3 5 -21 10 -40
15 -62 18 -74 24 -105 21 -108 26 -164 26 -285 1 -179 -24 -302 -92 -455 -5
-11 -18 -40 -29 -65 -10 -25 -46 -105 -79 -177 -33 -73 -58 -133 -54 -133 3 0
-2 -8 -11 -18 -9 -10 -18 -27 -20 -38 -2 -10 -12 -39 -23 -64 -41 -92 -55
-126 -58 -142 -1 -9 -7 -22 -12 -29 -6 -8 -14 -23 -17 -34 -5 -20 -106 -310
-108 -310 -1 0 -4 -13 -13 -50 -2 -11 -9 -32 -15 -48 -6 -15 -13 -38 -15 -50
-3 -12 -18 -76 -35 -142 -41 -165 -54 -247 -55 -342 -1 -29 -5 -53 -9 -53 -5
0 -5 -5 -1 -11 3 -6 8 -48 9 -92 2 -45 9 -107 15 -137 6 -30 13 -62 14 -70 3
-17 6 -26 48 -135 17 -44 34 -82 37 -85 4 -3 12 -16 19 -30 36 -71 103 -161
114 -154 5 3 7 1 6 -4 -3 -12 85 -107 144 -154 22 -18 45 -38 52 -44 15 -14
129 -93 175 -121 62 -39 211 -114 211 -107 0 4 6 2 13 -3 17 -13 176 -67 229
-77 12 -3 85 -18 101 -22 4 -1 10 -3 15 -4 8 -3 13 -4 77 -14 28 -5 59 -10 70
-13 11 -2 40 -6 65 -8 25 -3 56 -7 69 -10 52 -10 209 -22 406 -31 77 -3 141
-7 143 -9 2 -1 -8 -15 -22 -30 -33 -35 -32 -41 2 -59 35 -18 103 -14 136 8
l27 17 -21 29 c-11 15 -20 31 -20 34 0 3 73 3 163 1 302 -10 515 -6 617 9 14
3 48 7 75 11 28 3 79 13 115 21 36 8 77 17 91 20 14 2 56 16 95 30 38 13 80
27 93 30 13 3 33 11 45 19 11 8 28 15 38 15 10 0 18 5 18 10 0 6 3 9 8 8 11
-4 112 45 112 54 0 5 5 8 11 8 16 0 130 80 136 96 3 8 11 14 17 14 15 0 126
114 126 129 0 6 4 11 9 11 14 0 86 112 130 203 40 83 77 188 87 242 2 17 8 39
11 50 41 133 36 527 -9 690 -7 22 -11 44 -9 49 1 4 -3 24 -10 43 -6 19 -12 40
-13 46 -2 7 -6 19 -9 27 -3 8 -17 49 -30 90 -25 74 -55 153 -83 218 -8 17 -20
47 -28 65 -15 34 -82 178 -135 288 -17 36 -31 71 -31 77 0 6 -3 12 -8 14 -7 3
-84 177 -117 268 -9 25 -20 54 -25 65 -13 34 -29 89 -35 120 -15 74 -29 185
-27 215 3 74 14 169 22 200 5 19 12 50 15 69 3 19 9 39 13 45 3 6 7 17 9 25 5
36 121 346 178 476 15 33 40 110 36 110 -1 0 2 12 8 26 17 45 25 148 26 319 0
189 -6 250 -36 341 -51 154 -136 232 -267 243 -119 10 -182 -63 -217 -251 -25
-139 -69 -259 -118 -320 -110 -138 -235 -195 -452 -205 -51 -2 -189 34 -201
53 -3 5 -10 7 -15 4 -5 -4 -9 -1 -9 4 0 6 -6 11 -12 11 -7 0 -28 13 -46 28
l-32 28 -4 1087 c-3 597 -7 1091 -11 1097 -3 5 -2 10 2 10 5 0 7 17 6 38 -1
20 -2 315 -3 654 -2 461 -5 616 -14 611 -8 -5 -8 -3 0 8 15 18 15 71 1 62 -6
-4 -7 -1 -1 8 14 22 14 210 0 202 -8 -5 -8 -3 0 8 6 8 11 23 11 34 0 11 -5 26
-11 34 -8 11 -8 13 0 8 14 -8 13 100 -1 122 -5 9 -4 12 2 8 8 -5 11 86 3 103
-1 3 -1 10 0 15 7 25 6 102 -1 122 -5 12 -5 24 -1 27 5 3 7 689 2 911 0 17 0
39 0 50 0 25 1 167 1 180 -2 76 -2 521 -1 525 1 3 4 21 6 40 7 57 45 173 65
201 10 15 19 31 19 36 0 21 101 97 164 124 39 17 76 35 84 41 16 14 11 107
-14 273 -3 22 -7 54 -10 70 -2 17 -6 39 -9 51 -2 11 -7 43 -10 70 -4 27 -10
50 -15 52 -5 2 -7 9 -4 17 3 7 0 39 -6 72 -6 32 -13 70 -16 86 -10 66 -13 83
-19 107 -3 14 -8 43 -11 65 -3 22 -8 47 -10 55 -3 8 -8 29 -10 45 -2 17 -8 52
-13 80 -10 51 -1 77 28 83 16 4 102 71 141 111 35 35 71 88 75 109 2 9 4 17 5
17 12 0 15 199 3 217 -4 7 -9 23 -11 36 -4 34 -51 113 -88 149 -32 32 -124 89
-124 78 0 -3 -10 -1 -21 6 -28 14 -147 20 -176 9z"/>
</g>
</svg>
