<svg xmlns="http://www.w3.org/2000/svg"><defs><font id="Exo" horiz-adv-x="533"><font-face font-family="Exo Thin Black" ascent="1002" descent="-327" alphabetic="0"/><glyph horiz-adv-x="250"/><glyph unicode="!" horiz-adv-x="277" d="M64 206L41 742h194l-27-536H64zM78-2Q54-2 54 21v117q0 25 24 25h113q25 0 25-25V21q0-13-7-18t-18-5H78z"/><glyph unicode="&quot;" horiz-adv-x="476" d="M42 491L31 692v67h185v-67l-10-201H42zm220 0l-11 201v67h185v-67l-10-201H262z"/><glyph unicode="#" horiz-adv-x="749" d="M116 0l37 191H11l20 132h147l16 86H45l21 132h154l37 191h132l-37-191h88l36 191h132l-36-191h167l-19-132H552l-16-86h168l-18-132H506L469 0H337l37 191h-89L248 0H116zm194 323h94l16 86h-94l-16-86z"/><glyph unicode="$" horiz-adv-x="609" d="M233 718v106h108V718H233zm0-808V12h108V-90H233zm55 84q-33 0-64 2t-62 6-59 9-54 12v154q34-3 73-5t80-3 76-1q33 0 55 5t33 16 11 30v12q0 22-15 33t-37 11h-53q-116 0-176 51T36 497v33q0 110 66 164t190 55q47 0 88-4t78-11 66-14V566q-46 4-103 6t-105 3q-28 0-50-4t-34-16-12-35v-10q0-25 16-38t49-13h66q70 0 116-26t70-72 24-104v-33q0-95-33-145t-94-67T288-6z"/><glyph unicode="%" horiz-adv-x="968" d="M192 0l454 732h124L323 0H192zm-31 349q-73 0-105 35T24 484v113q0 64 31 99t108 36h101q74 0 105-35t32-100V484q0-64-31-99t-108-36H161zm25 125h51q26 0 32 12t7 28v53q0 25-9 32t-28 8h-51q-16 0-27-7t-12-33v-53q0-16 6-28t31-12zM704 3q-73 0-104 35t-32 100v113q0 64 31 99t107 36h102q74 0 105-35t32-100V138q0-64-31-99T806 3H704zm26 125h50q26 0 33 12t7 28v53q0 25-9 32t-29 8h-50q-16 0-27-7t-12-33v-53q0-16 6-28t31-12z"/><glyph unicode="&amp;" horiz-adv-x="715" d="M226-5q-56 0-100 25T56 91 31 195q0 56 23 103t65 83l56 48-10 16q-31 50-36 80t-6 58q0 56 26 90t71 50 101 16q38 0 78-4t75-10 57-15V568H359q-23 0-32-9t-10-24q0-13 11-32t34-50l99-136 139 121 70-88-67-108-49-48L700 0H502l-69 85-40-34q-36-30-75-43T226-5zm35 176q14 0 26 4t25 17l20 21-65 84-28-27q-14-14-19-25t-5-27q0-19 12-33t34-14z"/><glyph unicode="'" horiz-adv-x="256" d="M42 491L31 692v67h185v-67l-10-201H42z"/><glyph unicode="(" horiz-adv-x="413" d="M231-210q-49 52-92 124T69 87 42 326q0 131 28 232t71 176 90 126h171q-41-65-79-145t-62-177-25-212q0-113 20-203t58-171 88-162H231z"/><glyph unicode=")" horiz-adv-x="413" d="M11-210q41 66 79 146t62 176 25 212q0 114-20 204t-57 170-89 162h171q49-51 92-123t70-173 27-240q0-130-28-231T272-83t-90-127H11z"/><glyph unicode="*" horiz-adv-x="418" d="M289 498l-59 73 119 81 41-57-101-97zM143 397l-67 21 25 138 91-24-49-135zm29 164l-144 5v70l139 19 5-94zm127-168l-123 66 51 79 114-89-42-56zM197 584l-40 138 67 22 61-126-88-34z"/><glyph unicode="+" horiz-adv-x="609" d="M227 132v448h154V132H227zM80 279v154h448V279H80z"/><glyph unicode="," horiz-adv-x="257" d="M115-97q-25 0-43 4t-19 5v62q16 0 23 4t8 17v19H73q-10 0-17 6t-8 19v97q0 27 25 27h111q14 0 19-8t5-19V-11q0-35-14-54t-36-25-43-7z"/><glyph unicode="-" horiz-adv-x="354" d="M20 213v154h314V213H20z"/><glyph unicode="." horiz-adv-x="257" d="M72-2Q48-2 48 21v117q0 25 24 25h113q25 0 25-25V21q0-13-7-18t-18-5H72z"/><glyph unicode="/" horiz-adv-x="502" d="M11-72l281 842h199L210-72H11z"/><glyph unicode="0" horiz-adv-x="641" d="M243-6q-68 0-113 24T62 87 40 196v341q0 69 23 116t70 71 111 25h162q63 0 106-24t66-72 23-116V196q0-94-50-148T405-6H243zm48 174h60q27 0 41 13t15 45v291q0 35-14 46t-34 12h-75q-26 0-38-14t-12-44V227q0-32 14-45t43-14z"/><glyph unicode="1" horiz-adv-x="379" d="M140 0v565H22v124l140 60h172V0H140z"/><glyph unicode="2" horiz-adv-x="582" d="M40 0v154l231 236q22 22 37 41t23 37 9 37q0 21-8 34t-24 20-43 6H52v154q49 11 109 20t141 10q88 0 138-24t72-71 22-115q0-49-13-89t-37-75-60-70L296 174h258V0H40z"/><glyph unicode="3" horiz-adv-x="575" d="M328-6q-80 0-155 7T34 21v156h218q39 0 60 4t30 13 8 25v19q0 18-9 29t-26 16-42 7l-178 8v150l169 11q40 3 59 12t19 32v9q0 29-20 41t-74 12H44v156q65 11 137 20t146 8q64-1 110-21t72-62 25-106v-50q0-25-4-46t-15-39-26-31-39-21q24-7 41-22t29-37 18-47 6-57v-29q0-91-57-139T328-6z"/><glyph unicode="4" horiz-adv-x="635" d="M364 0v137H55l-34 87 215 519h198L252 301h112v110l37 96h157V301h60V167l-60-30V0H364z"/><glyph unicode="5" horiz-adv-x="592" d="M298-6q-56 0-123 6T43 14v154h264q31 0 43 10t14 25 2 25v31q0 25-9 39t-37 14h-44q-24 0-34-9t-13-26H45l21 466h463V569H232l-5-113q17 13 41 16t48 4h76q58 0 95-24t55-65 18-92V186q0-68-28-110t-87-62T298-6z"/><glyph unicode="6" horiz-adv-x="597" d="M271-6q-59 0-103 16T95 67 52 177 37 355q0 115 19 191t58 121 92 63 123 19q53 0 102-4t90-16V575H352q-68 0-94-34t-27-96q19 9 37 13t44 6 62 2q78 0 119-24t57-65 15-91V178q0-65-23-105t-67-60T374-6H271zm40 174h17q17 0 26 6t13 17 4 28v28q0 22-4 33t-16 17-34 5h-86q0-40 4-66t13-41 25-21 38-6z"/><glyph unicode="7" horiz-adv-x="561" d="M100 0l194 549H17v194h481l47-78L316 0H100z"/><glyph unicode="8" horiz-adv-x="618" d="M248-6q-38 0-75 6t-66 25-47 51-18 89v99q0 24 7 48t23 43 44 25q-30 16-42 36t-15 44-2 50v84q0 57 25 91t67 49 89 15h142q48 0 89-15t66-49 26-91v-84q0-10-2-28t-8-37-18-34-32-17q35-8 50-32t20-52 5-46v-99q0-73-27-109T478 7 383-6H248zm35 164h52q33 0 40 12t7 34v47q0 20-11 33t-34 14h-54q-12 0-21-3t-14-10-9-15-3-19v-47q0-26 10-36t37-10zm0 304h52q18 0 25 5t10 18 2 30v31q0 29-11 34t-26 5h-52q-18 0-27-5t-10-34v-31q0-36 8-44t29-9z"/><glyph unicode="9" horiz-adv-x="597" d="M270-6q-53 0-102 5T78 14v154h169q68 0 94 34t27 96q-18-8-37-13t-44-6-62-2q-78 0-119 24t-56 65-16 91v108q0 65 23 105t67 60 101 19h103q59 0 103-16t73-57 43-110 15-178q0-115-19-191T485 76t-92-63T270-6zm12 447h86q0 40-4 66t-13 41-25 21-38 6h-17q-16 0-25-6t-14-17-4-28v-28q0-21 4-33t17-17 33-5z"/><glyph unicode=":" horiz-adv-x="257" d="M72-2Q48-2 48 21v117q0 25 24 25h113q25 0 25-25V21q0-13-7-18t-18-5H72zm0 378q-24 0-24 23v117q0 25 24 25h113q25 0 25-25V399q0-13-7-18t-18-5H72z"/><glyph unicode=";" horiz-adv-x="257" d="M72 376q-24 0-24 23v117q0 25 24 25h113q25 0 25-25V399q0-13-7-18t-18-5H72zm43-473q-25 0-43 4t-19 5v62q16 0 23 4t8 17v19H73q-10 0-17 6t-8 19v97q0 27 25 27h111q14 0 19-8t5-19V-11q0-35-14-54t-36-25-43-7z"/><glyph unicode="&lt;" horiz-adv-x="609" d="M511 130L96 266v170l415 130V396l-225-43 225-53V130z"/><glyph unicode="=" horiz-adv-x="609" d="M80 415v154h448V415H80zm0-16v154h448V399H80z"/><glyph unicode="&gt;" horiz-adv-x="609" d="M98 130v170l225 53-225 43v170l415-130V266L98 130z"/><glyph unicode="?" horiz-adv-x="528" d="M134 206v224h82q32 0 52 11t21 46v15q0 34-25 48t-71 15q-39 0-76-8t-76-22v144q35 23 88 41t124 19q73 0 124-26t79-73 27-106v-51q0-96-51-146t-154-51v-80H134zM149-2q-24 0-24 23v117q0 25 24 25h113q25 0 25-25V21q0-13-7-18t-18-5H149z"/><glyph unicode="@" horiz-adv-x="888" d="M275-198q-46 0-88 12t-77 39-53 73T37 40v268q0 38 8 71t25 62 45 48 67 32 93 11h173q36 0 70-4t62-21 44-51 17-94V20H523l-24 54q-1 0-9-9t-25-22-42-22-60-10q-47 0-75 22t-40 57-13 68v33q0 74 42 108t117 35h103v16q0 25-10 31t-34 7H275q-24 0-45-6t-35-25-14-59V60q0-45 15-69t37-34 42-10h319q62 0 82 31t21 82v412q0 58-28 88t-75 31H190v117q24 5 75 11t116 11 127 5h86q43 0 86-12t80-43 59-80 22-128V60q0-94-28-150t-82-82-127-26H275zm149 353q15 0 29 3t25 10 19 21v43l-71-6q-14-1-22-3t-11-8-4-18v-12q0-16 7-23t28-7z"/><glyph unicode="A" horiz-adv-x="692" d="M5 0l220 743h242L687 0H486l-30 118H233L204 0H5zm273 292h133l-67 286-66-286z"/><glyph unicode="B" horiz-adv-x="643" d="M55 0v743h308q120 0 172-53t53-145q0-43-11-75t-34-54-57-30q26-7 49-21t40-37 26-54 10-70q0-73-26-118t-78-65T378 0H55zm194 174h123q18 0 30 8t18 22 7 35q0 20-6 34t-19 23-30 8H249V174zm0 277h112q22 0 32 17t11 42q0 34-13 46t-30 13H249V451z"/><glyph unicode="C" horiz-adv-x="589" d="M309-6Q246-6 196 9t-86 55-55 115-19 195q0 116 20 190t56 114 87 56 110 16q62 0 109-6t81-16 54-18V559q-19 4-49 8t-68 6-84 3q-34 0-57-7t-38-28-20-61-7-108q0-60 5-100t18-62 37-32 64-10q76 0 123 2t76 7V26q-25-10-58-17T416-2 309-6z"/><glyph unicode="D" horiz-adv-x="688" d="M55 0v743h328q81 0 133-28t82-80 42-118 12-146q0-131-29-212T534 39 383 0H55zm194 174h114q37 0 57 20t29 63 9 114q0 66-6 105t-19 60-30 26-40 7H249V174z"/><glyph unicode="E" horiz-adv-x="604" d="M251-6q-24 0-57 5t-65 22-53 52-21 98v388q0 54 17 90t44 56 60 29 64 9q84 0 144-2t105-6 79-7V564H300q-25 0-38-11t-13-33v-62l269-10V294l-269-10v-56q0-18 5-29t16-17 22-6h276V12q-43-6-98-10T358-4 251-6z"/><glyph unicode="F" horiz-adv-x="593" d="M55 0v559q0 54 17 90t44 56 60 29 64 9h86q55 0 119-4t123-12V564H296q-25 0-36-13t-11-29v-84l269-10V274l-269-10V0H55z"/><glyph unicode="G" horiz-adv-x="675" d="M259-5q-69 0-112 29t-68 81-33 120-10 145q0 86 11 156t42 120 88 77 148 27q59 0 101-4t80-13 77-20V562q-22 4-56 7t-76 5-89 2q-58 0-86-17t-37-63-9-126q0-62 5-100t16-60 30-29 43-8q37 0 66 3t44 7v96H331v154q22 3 52 5t63 3 60 2h63q27 0 51-2V0H474l-26 49q-24-16-75-35T259-5z"/><glyph unicode="H" horiz-adv-x="718" d="M55 0v743h194V457h220v286h194V0H469v283H249V0H55z"/><glyph unicode="I" horiz-adv-x="304" d="M55 0v743h194V0H55z"/><glyph unicode="J" horiz-adv-x="417" d="M153-6q-36 0-70 5T26 12v156h81q22 0 35 7t20 19 6 31v518h194V195q0-64-20-109t-67-68T153-6z"/><glyph unicode="K" horiz-adv-x="672" d="M55 0v743h194V454h77l119 289h206L480 369 660 0H454L326 280h-77V0H55z"/><glyph unicode="L" horiz-adv-x="537" d="M248 0q-67 0-110 20T75 83 55 193v550h194V226q0-17 5-29t18-17 29-6h216V0H248z"/><glyph unicode="M" horiz-adv-x="915" d="M35 0l88 743h182l153-522 153 522h180L880 0H693l-57 478 28-1L547 0H365L247 477l31 1L222 0H35z"/><glyph unicode="N" horiz-adv-x="719" d="M55 0v743h154l261-414v414h194V0H510L249 414V0H55z"/><glyph unicode="O" horiz-adv-x="708" d="M354-6Q275-6 216 9T116 65 56 179 36 372q0 118 20 192t60 115 99 55 139 16q79 0 138-15t100-56 60-114 20-193q0-118-20-192T592 65t-99-55T354-6zm0 174q38 0 62 9t37 31 19 62 6 102q0 65-5 105t-19 61-38 30-62 8q-37 0-61-8t-38-29-19-62-6-105q0-62 5-102t19-62 38-31 62-9z"/><glyph unicode="P" horiz-adv-x="633" d="M55 0v743h326q38 0 78-8t73-35 54-80 21-143q0-90-20-144t-52-82-69-37-74-10q-19 0-39 2t-40 5-36 7-28 6V0H55zm194 378h112q20 0 31 11t16 32 5 54q0 31-5 52t-17 31-30 11H249V378z"/><glyph unicode="Q" horiz-adv-x="708" d="M519-215q-55 0-105 18t-82 58-33 101h134q3-23 25-32t50-9q18 0 35 4t33 7v-140q-15-1-29-4t-28-3zM354-6Q275-6 216 9T116 65 56 179 36 372q0 118 20 192t60 115 99 55 139 16q79 0 138-15t100-56 60-114 20-193q0-118-20-192T592 65t-99-55T354-6zm0 174q38 0 62 9t37 31 19 62 6 102q0 65-5 105t-19 61-38 30-62 8q-37 0-61-8t-38-29-19-62-6-105q0-62 5-102t19-62 38-31 62-9z"/><glyph unicode="R" horiz-adv-x="640" d="M55 0v743h317q49 0 90-12t71-40 46-77 17-121q0-46-8-80t-21-57-32-40-40-28L624 0H427L323 256h-74V0H55zm194 410h88q16 0 28 4t20 15 13 25 4 38q0 22-4 37t-12 23-21 13-28 4h-88V410z"/><glyph unicode="S" horiz-adv-x="597" d="M288-6q-33 0-64 2t-62 6-59 9-54 12v154q34-3 73-5t80-3 76-1q33 0 55 5t33 16 11 30v12q0 22-15 33t-37 11h-53q-116 0-176 51T36 497v33q0 110 66 164t190 55q47 0 88-4t78-11 66-14V566q-46 4-103 6t-105 3q-28 0-50-4t-34-16-12-35v-10q0-25 16-38t49-13h66q70 0 116-26t70-72 24-104v-33q0-95-33-145t-94-67T288-6z"/><glyph unicode="T" horiz-adv-x="600" d="M203 0v569H16v174h568V569H397V0H203z"/><glyph unicode="U" horiz-adv-x="692" d="M346-5Q285-5 231 5t-97 37-65 76-24 127v498h194V246q0-26 12-43t37-25 58-9q34 0 58 8t36 26 13 43v497h194V245q0-78-23-127t-66-76-96-37T346-5z"/><glyph unicode="V" horiz-adv-x="692" d="M225 0L5 743h201l141-532 141 532h199L467 0H225z"/><glyph unicode="W" horiz-adv-x="991" d="M175 0L5 743h201l92-452 111 452h174l110-452 92 452h201L816 0H622L496 454 369 0H175z"/><glyph unicode="X" horiz-adv-x="690" d="M466 0L5 743h214L680 0H466zM8 0l253 417 100-163L222 0H8zm418 318l-99 160 144 265h214L426 318z"/><glyph unicode="Y" horiz-adv-x="634" d="M220 0v211L5 743h201l115-334 115 334h193L414 211V0H220z"/><glyph unicode="Z" horiz-adv-x="583" d="M35 0v154l277 415H35v174h513V589L271 174h277V0H35z"/><glyph unicode="[" horiz-adv-x="344" d="M244-210q-63 0-102 20t-59 54-28 72-7 76v628q0 50 11 87t34 63 61 39 90 13h90V688h-30q-28 0-45-16t-17-62V22q0-30 7-47t22-24 33-7h30v-154h-90z"/><glyph unicode="\" horiz-adv-x="502" d="M292-72L11 770h199L491-72H292z"/><glyph unicode="]" horiz-adv-x="344" d="M11-210v154h30q19 0 33 7t21 24 8 47v588q0 45-16 61t-46 17H11v154h90q52 0 89-13t61-38 35-63 11-88V12q0-37-7-76t-27-72-60-53-102-21H11z"/><glyph unicode="^" horiz-adv-x="378" d="M28 531l100 140h131l91-140H239l-49 51-50-51H28z"/><glyph unicode="_" horiz-adv-x="609" d="M0-211v154h609v-154H0z"/><glyph unicode="`" horiz-adv-x="244" d="M119 631L11 774h154l68-143H119z"/><glyph unicode="a" horiz-adv-x="554" d="M165-6Q103-6 65 31T26 131v55q0 60 44 100t140 40h108v17q0 20-7 31t-28 16-68 5H58v111q42 17 96 28t134 11q68 0 118-15t78-56 28-117V0H358l-30 54q-10-10-24-20t-35-19-46-15-58-6zm102 132q5 0 11 1t12 2 11 3 10 4 7 3v97l-41-6q-28-4-42-14t-15-33v-20q0-13 5-21t16-12 26-4z"/><glyph unicode="b" horiz-adv-x="590" d="M380-6q-34 0-58 7t-44 19-40 29L208 0H44v763h194V509q27 14 62 26t70 13q72 0 113-30t59-92 18-163q0-95-20-154t-60-87T380-6zm-76 157q15 0 29 8t23 34 10 80q0 57-9 82t-24 31-29 7q-19 0-38-7t-28-13V166q11-6 27-10t39-5z"/><glyph unicode="c" horiz-adv-x="490" d="M263-6q-51 0-94 13T95 52t-48 83-17 131q0 82 15 136t46 87 75 45 103 14q54 0 97-7t97-24V406H332q-43 0-66-11t-33-41-9-85q0-56 8-84t32-37 70-9h136V30q-25-10-60-18T336-1t-73-5z"/><glyph unicode="d" horiz-adv-x="588" d="M222-6q-61 0-104 25t-65 85-23 159q0 100 17 162t62 93 123 30q32 0 63-6t57-15v236h194V0H382l-30 49q-19-17-40-29T269 1t-47-7zm71 155q20 0 35 6t24 14v218q-9 5-24 11t-30 6q-27 0-43-9t-24-37-7-85q0-55 6-81t22-35 41-8z"/><glyph unicode="e" horiz-adv-x="535" d="M285-5q-92 0-148 23t-81 82-26 168q0 111 23 171t76 85 147 24q86 0 136-16t71-57 22-118q0-59-23-92t-65-48-99-14h-96q3-24 12-38t33-21 71-6h147V25q-35-10-83-20T285-5zm-65 321h77q20 0 29 9t9 31q0 19-6 31t-19 17-34 6q-19 0-31-8t-19-28-6-58z"/><glyph unicode="f" horiz-adv-x="409" d="M87 0v385H15v124l72 30v19q0 76 21 122t64 68 110 21q35 0 67-6t50-12V612h-77q-14 0-23-4t-13-13-5-26v-30h118V385H281V0H87z"/><glyph unicode="g" horiz-adv-x="586" d="M188-250q-49 0-89 15t-63 43-24 69v11q0 41 24 71t64 46 84 17l61-56q-17 0-28-5t-16-13-5-20v-5q0-16 11-27t38-12h88q22 0 36 9t14 26v12q0 12-6 19t-18 12-26 4h-92Q133-34 84 4T34 97q0 41 23 71t64 40q-28 18-45 42t-26 52-8 59q0 58 24 97t75 60 136 21h294V433l-57-18q7-10 11-23t7-31 3-41q0-50-20-87t-64-57-113-21H236q-16 0-28-5t-12-19q0-13 12-17t28-4h130q61 0 106-16t70-53 25-102v-9q0-84-50-132t-160-48H188zm73 549h55q17 0 27 5t14 16 4 28q0 17-4 27t-14 15-27 5h-55q-25 0-35-10t-10-37q0-25 10-37t35-12z"/><glyph unicode="h" horiz-adv-x="600" d="M44 0v762h194V487q23 22 66 41t88 20q64 0 100-24t51-68 15-106V0H364v324q0 20-7 31t-20 15-26 4q-13 0-27-4t-26-12-20-15V0H44z"/><glyph unicode="i" horiz-adv-x="282" d="M66 607q-24 0-24 23v111q0 25 24 25h152q11 0 16-7t6-18V630q0-23-22-23H66zM44 0v539h194V0H44z"/><glyph unicode="j" horiz-adv-x="282" d="M65 607q-24 0-24 23v111q0 25 24 25h152q11 0 16-7t6-18V630q0-23-22-23H65zM44-237v776h194V-4q0-57-12-121t-34-112H44z"/><glyph unicode="k" horiz-adv-x="586" d="M44 0v763h194V370h54l88 169h195L436 283 593 0H399L291 196h-53V0H44z"/><glyph unicode="l" horiz-adv-x="326" d="M231-3q-64 0-105 20T64 76t-20 99v588h194V205q0-19 4-32t14-20 25-10l33-5V-3h-83z"/><glyph unicode="m" horiz-adv-x="920" d="M44 0v539h162l32-52q32 25 68 43t98 18q50 0 82-20t50-53q21 16 48 33t58 28 64 12q69 0 106-24t52-71 14-113V0H684v322q0 21-7 32t-18 15-28 5q-20 0-40-9t-33-22V0H364v322q0 21-7 32t-18 15-28 5q-13 0-27-4t-25-11-21-16V0H44z"/><glyph unicode="n" horiz-adv-x="600" d="M44 0v539h162l32-52q25 23 67 42t85 19q70 0 106-26t49-72 13-102V0H364v322q0 21-7 32t-18 15-28 5q-13 0-27-4t-25-11-21-16V0H44z"/><glyph unicode="o" horiz-adv-x="574" d="M287-5q-72 0-121 15T86 58t-43 85-13 128q0 81 13 134t44 85 79 45 121 13q72 0 121-14t79-45 43-85 14-133q0-78-12-131t-42-85-79-46T287-5zm0 154q19 0 31 3t19 16 10 37 3 67q0 42-3 66t-10 37-19 15-31 4q-19 0-31-3t-19-16-10-36-3-67q0-42 3-67t10-37 19-15 31-4z"/><glyph unicode="p" horiz-adv-x="590" d="M44-237v776h164l30-49q20 17 39 30t41 20 52 8q48 0 84-17t59-51 35-88 12-124q0-84-15-146t-57-96T370-8q-34 0-69 6t-63 19v-254H44zm260 388q14 0 28 8t24 34 10 75q0 50-7 77t-20 38-34 10q-21 0-39-6t-28-14V166q10-7 28-11t38-4z"/><glyph unicode="q" horiz-adv-x="588" d="M352-237V49q-22-21-55-38T231-6q-76 0-120 28t-62 89-19 157q0 110 22 171t69 85 118 24q48 0 104-4t110-10 93-12v-759H352zm-62 386q12 0 33 7t29 13v235h-50q-29 0-46-11t-25-40-7-78q0-56 6-83t21-35 39-8z"/><glyph unicode="r" horiz-adv-x="430" d="M44 0v539h151l43-75q24 33 55 58t77 25q8 0 19-1t21-4V343q-17 2-34 3t-32 1q-24 0-44-4t-35-14-27-24V0H44z"/><glyph unicode="s" horiz-adv-x="508" d="M247-6q-29 0-58 2t-56 5-52 10-43 14v113h250q13 0 19 2t9 7 2 11v13q0 10-6 15t-31 6h-90q-45 0-82 15t-60 49-23 91v33q0 52 20 88t71 56 143 20q37 0 75-4t70-12 51-15V400H219q-15 0-22-4t-7-16v-13q0-8 3-12t13-7 24-2h93q88 0 123-40t36-108v-55q0-54-26-87T378 9 247-6z"/><glyph unicode="t" horiz-adv-x="403" d="M267 0q-69 0-110 18T98 81 82 203l6 182H5v124l91 30 24 151h154V539h109V385H274V204q0-13 2-22t6-16 12-10 16-5l69-7V0H267z"/><glyph unicode="u" horiz-adv-x="600" d="M192-6Q122-6 82 38T42 156v383h194V217q0-31 15-41t38-11q15 0 38 9t35 22v343h194V0H394l-32 52q-34-22-77-40T192-6z"/><glyph unicode="v" horiz-adv-x="582" d="M174 0L8 539h200l82-360 86 360h198L398 0H174z"/><glyph unicode="w" horiz-adv-x="845" d="M137 0L8 539h200l55-360 86 360h158l86-360 44 360h200L711 0H497l-73 261L347 0H137z"/><glyph unicode="x" horiz-adv-x="564" d="M369 0L0 539h195L564 0H369zM0 0l212 332 69-184L196 0H0zm352 205l-81 164 97 170h196L352 205z"/><glyph unicode="y" horiz-adv-x="587" d="M228-237L280 0q-58 0-96 20t-61 56-32 80L8 539h201l61-344q2-12 6-19t11-12 13-6 13-2l69 383h197L442-138l-50-99H228z"/><glyph unicode="z" horiz-adv-x="512" d="M41 0v138l217 247H30v154h452V401L265 154h217V0H41z"/><glyph unicode="{" horiz-adv-x="322" d="M311-210q-66 0-112 9t-74 30-42 54-13 79v230q0 17-6 29t-20 19-33 5v177q17 2 30 7t22 16 8 30v181q0 60 26 101t79 63 135 22V688q-21 0-31-9t-12-33-3-70V440q0-55-28-78t-77-28q49-10 76-35t28-68V32q0-49 6-73t41-25v-144z"/><glyph unicode="|" horiz-adv-x="250" d="M48-72v842h154V-72H48z"/><glyph unicode="}" horiz-adv-x="322" d="M11-210v144q35 0 41 24t6 74v199q0 43 27 68t77 35q-49 4-77 27t-28 79v136q0 46-2 70t-13 33-31 9v154q82 0 135-21t79-63 26-102V475q0-19 8-30t22-16 30-7V245q-20 2-33-4t-19-19-7-30V-38q0-46-13-79t-41-53-75-30-112-10z"/><glyph unicode="~" horiz-adv-x="404" d="M264 531q-16 0-33 5t-35 12-32 12-26 6q-22 0-41-8t-42-27l-27 67q19 27 50 50t73 24q17 0 32-5t31-12 28-12 25-6q23 0 45 11t38 29l26-74q-16-25-45-48t-67-24z"/><glyph horiz-adv-x="250"/><glyph unicode="¡" horiz-adv-x="277" d="M213 333l23-536H42l27 536h144zm-14 208q24 0 24-23V401q0-25-24-25H86q-25 0-25 25v117q0 13 7 18t18 5h113z"/><glyph unicode="¢" horiz-adv-x="485" d="M212-95v90q-40 1-74 14T77 54t-40 83-15 129q0 78 14 130t41 83 61 44 78 13v98h108V534q30-3 63-11t69-23V386l-41 3q-41 3-109 3-25 0-42-4t-28-18-15-39-5-67q0-38 4-62t14-38 27-19 45-6q46 0 81 2t55 4 20 2V33q-32-20-68-29T320-6v-89H212z"/><glyph unicode="£" horiz-adv-x="609" d="M54 0v149l82 25v130l-82 13v95l82 27v43q0 94 26 152t84 87 151 28q56 0 100-5t73-11V576H405q-27 0-43-6t-24-22-8-44v-65l161-17V317l-161-13V174h239V0H54z"/><glyph unicode="¤" horiz-adv-x="609" d="M304 171q-51 0-92 25t-67 67-25 93q0 51 25 93t66 67 93 25q51 0 93-25t67-67 25-93q0-50-25-92t-67-68-93-25zm-170-62l-77 77 108 108 77-77-108-108zm27 313L57 526l77 77 104-104-77-77zm313-313L368 215l77 77 106-106-77-77zM304 265q25 0 45 12t33 33 13 46q0 25-12 45t-33 33-46 13q-24 0-44-12t-33-33-12-46q0-25 12-45t32-33 45-13zm141 155l-77 77 106 106 77-77-106-106z"/><glyph unicode="¥" horiz-adv-x="609" d="M77 261v94h454v-94H77zm0-147v94h454v-94H77zM197 0v211L-18 743h201l115-334 115 334h193L391 211V0H197z"/><glyph unicode="¦" horiz-adv-x="250" d="M48 429v341h154V429H48zm0-501v328h154V-72H48z"/><glyph unicode="§" horiz-adv-x="532" d="M314-6h-62q-32 0-64 3t-62 5-58 9v137h204q15 0 23 1t11 6 3 12v12q0 7-2 11t-9 7-17 3h-80q-50 0-88 10t-59 38-22 75v32q0 42 17 65t57 39q-38 19-51 53t-14 78v48q0 40 19 73t60 53 111 20q26 0 57-1t63-3 62-6 52-10V630H261q-14 0-22-3t-11-8-3-13v-6q0-7 4-16t24-9h77q57 0 95-12t58-40 20-73v-32q0-29-17-58t-55-45q22-7 37-22t22-38 8-52v-43q0-64-23-100T411 9 314-6zm-63 350h30q13 0 21 2t12 8 5 20v29q0 9-4 15t-12 9-22 3h-30q-19 0-27-7t-8-22v-28q0-9 4-15t13-10 18-4z"/><glyph unicode="¨" horiz-adv-x="390" d="M249 627q-24 0-24 23v111q0 25 24 25h90q11 0 17-7t6-18V650q0-23-23-23h-90zm-197 0q-24 0-24 23v111q0 25 24 25h90q11 0 17-7t6-18V650q0-23-23-23H52z"/><glyph unicode="©" horiz-adv-x="792" d="M308 0q-58 0-103 17t-78 49-54 77-31 102-11 123q0 73 11 138t41 117 84 80 141 29h200q61 0 104-17t73-49 46-77 24-100 7-121q0-97-18-167T692 87t-80-66T508 0H308zm66 147q-42 0-79 17t-60 65-24 136q0 81 20 128t56 69 88 21q19 0 48-2t61-7 59-15v-92q-27 4-51 6t-43 4-34 2q-34 0-54-9t-28-35-8-73q0-63 21-87t66-24q41 0 75 5t62 11v-92q-37-20-82-24t-93-4zm-66-43h190q45 0 79 23t52 81 19 160q0 45-3 91t-17 84-42 61-78 24H308q-33 0-62-10t-52-39-36-79-13-132q0-60 9-108t30-83 50-54 74-19z"/><glyph unicode="ª" horiz-adv-x="412" d="M20 248v88h372v-88H20zm148 233q0-7 3-11t10-6 15-2h7q3 0 7 1t5 2 3 1v57l-22-4q-13-2-20-8t-8-17v-13zM15 499q0 43 31 64t97 22h75v18q0 17-10 21t-58 5H36v94q32 14 74 23t105 10q51 0 90-11t61-41 22-89V360H252l-25 38q-9-8-19-15t-24-14-30-9-36-4q-46 0-74 25t-29 67v51z"/><glyph unicode="«" horiz-adv-x="626" d="M259 56L28 284l226 223 97-95-130-128 131-130-93-98zm250 0L278 284l226 223 97-95-130-128 131-130-93-98z"/><glyph unicode="¬" horiz-adv-x="609" d="M374 159v308h154V159H374zM80 399v154h448V399H80z"/><glyph unicode="­" horiz-adv-x="354" d="M20 213v154h314V213H20z"/><glyph unicode="®" horiz-adv-x="792" d="M308 0q-58 0-103 17t-78 49-54 77-31 102-11 123q0 73 11 138t41 117 84 80 141 29h200q61 0 104-17t73-49 46-77 24-100 7-121q0-97-18-167T692 87t-80-66T508 0H308zm0 104h190q45 0 79 23t52 81 19 160q0 45-3 91t-17 84-42 61-78 24H308q-33 0-62-10t-52-39-36-79-13-132q0-60 9-108t30-83 50-54 74-19zm-71 49v427h187q33 0 64-11t50-41 20-86q0-29-3-51t-12-37-20-26-29-17l84-158H464l-77 162h-36V153H237zm114 246h69q11 0 17 7t7 35q0 21-6 28t-18 7h-69v-77z"/><glyph unicode="¯" horiz-adv-x="348" d="M28 631v114h292V631H28z"/><glyph unicode="°" horiz-adv-x="311" d="M156 470q-65 0-108 42T4 622q0 46 20 80t54 53 78 20q68 0 109-42t42-111q0-68-41-110t-110-42zm0 87q29 0 46 17t18 48q0 30-17 48t-47 18q-29 0-47-18t-18-48q0-30 18-47t47-18z"/><glyph unicode="±" horiz-adv-x="609" d="M80 79v154h448V79H80zm147 203v448h154V282H227zM80 429v154h448V429H80z"/><glyph unicode="²" horiz-adv-x="450" d="M39 280v122l148 166q17 20 30 40t13 34q0 10-4 16t-12 8-18 3H45v130q35 8 78 16t105 9q66 0 104-17t54-52 16-87q0-35-8-61t-27-53-49-61l-55-66h152V280H39z"/><glyph unicode="³" horiz-adv-x="450" d="M241 276q-56 0-106 6t-98 16v132h146q27 0 40 2t18 8 5 10v4q0 9-5 14t-15 9-27 4l-119 6v127l111 9q26 2 37 5t12 14v4q0 14-12 18t-47 5H41v132q51 11 101 18t105 5q71-1 115-33t45-107v-34q0-22-4-41t-16-34-37-24q26-8 39-25t19-39 5-47v-16q0-71-46-109t-126-39z"/><glyph unicode="´" horiz-adv-x="244" d="M11 631l68 143h154L125 631H11z"/><glyph unicode="µ" horiz-adv-x="600" d="M266-6q-33 0-71 12t-74 37-57 62-22 86v348h194V217q0-21 7-32t19-15 27-5q23 0 42 9t31 22v343h194V0H394l-22 52q-18-28-42-43T266-6zM42-270v525h194v-525H42z"/><glyph unicode="¶" horiz-adv-x="574" d="M232-270v589q-7-5-24-11t-44-6q-50 0-81 20t-46 52-15 72v157q0 48 19 79t55 46 82 15h406V617h-50V0H410v619h-54v-889H232zm-44 696h44v193h-44q-30 0-36-9t-6-41V466q0-15 2-23t8-11 14-5 18-1z"/><glyph unicode="·" horiz-adv-x="257" d="M72 265q-24 0-24 23v117q0 25 24 25h113q25 0 25-25V288q0-13-7-18t-18-5H72z"/><glyph unicode="¸" horiz-adv-x="238" d="M28-203v79l15 3q17 3 24 10t8 17q0 10-7 18T43-62l75 15q30 0 56-16t26-54q0-40-27-63t-86-23H28zM43-62l50 82h86l-50-82H43z"/><glyph unicode="¹" horiz-adv-x="450" d="M150 280v387H56v121l113 36h151V280H150zm-102 0v147h373V280H48z"/><glyph unicode="º" horiz-adv-x="424" d="M24 248v88h376v-88H24zm162 310q0-37 1-54t8-21 17-5q11 0 16 4t8 22 2 54q0 37-2 53t-7 21-17 5q-11 0-17-4t-7-21-2-54zm-170-1q0 78 18 122t61 62 117 18q75 0 117-19t61-63 18-120q0-73-16-117t-59-63-121-20q-75 0-118 21t-60 65-18 114z"/><glyph unicode="»" horiz-adv-x="626" d="M121 56l-93 98 131 130L29 412l97 95 226-223L121 56zm250 0l-93 98 131 130-130 128 97 95 226-223L371 56z"/><glyph unicode="¼" horiz-adv-x="1275" d="M389 0l366 770h131L520 0H389zm650 0v89H825l-18 103 128 348h169L995 227h44v30l39 108h121V227h35V114l-35-25V0h-160zM150 280v387H56v121l113 36h151V280H150zm-102 0v147h373V280H48z"/><glyph unicode="½" horiz-adv-x="1275" d="M389 0l366 770h131L520 0H389zm445 0v122l148 166q17 20 30 40t13 34q0 10-4 16t-12 8-18 3H840v130q35 8 78 16t105 9q66 0 104-17t54-52 16-87q0-35-8-61t-27-53-49-61l-55-66h152V0H834zM150 280v387H56v121l113 36h151V280H150zm-102 0v147h373V280H48z"/><glyph unicode="¾" horiz-adv-x="1275" d="M389 0l366 770h131L520 0H389zm650 0v89H825l-18 103 128 348h169L995 227h44v30l39 108h121V227h35V114l-35-25V0h-160zM251 276q-56 0-106 6t-98 16v132h146q27 0 40 2t18 8 5 10v4q0 9-5 14t-15 9-27 4l-119 6v127l111 9q26 2 37 5t12 14v4q0 14-12 18t-47 5H51v132q51 11 101 18t105 5q71-1 115-33t45-107v-34q0-22-4-41t-16-34-37-24q26-8 39-25t19-39 5-47v-16q0-71-46-109t-126-39z"/><glyph unicode="¿" horiz-adv-x="528" d="M394 333V109h-82q-32 0-52-11t-21-46V37q0-34 25-48t71-15q39 0 76 8t76 22v-144q-35-23-88-41t-124-19q-73 0-124 26t-79 73T45 5v51q0 96 51 146t154 51v80h144zm-15 208q24 0 24-23V401q0-25-24-25H266q-25 0-25 25v117q0 13 7 18t18 5h113z"/><glyph unicode="À" horiz-adv-x="692" d="M5 0l220 743h242L687 0H486l-30 118H233L204 0H5zm273 292h133l-67 286-66-286zm34 499L204 934h154l68-143H312z"/><glyph unicode="Á" horiz-adv-x="692" d="M5 0l220 743h242L687 0H486l-30 118H233L204 0H5zm273 292h133l-67 286-66-286zm16 499l68 143h154L408 791H294z"/><glyph unicode="Â" horiz-adv-x="692" d="M5 0l220 743h242L687 0H486l-30 118H233L204 0H5zm273 292h133l-67 286-66-286zm-96 499l100 146h131l91-146H393l-49 61-50-61H182z"/><glyph unicode="Ã" horiz-adv-x="692" d="M5 0l220 743h242L687 0H486l-30 118H233L204 0H5zm273 292h133l-67 286-66-286zM146 777q4 54 19 85t39 46 53 14q26 0 45-5t34-13 30-13 31-6q15 0 22 11t9 33h96q-4-77-31-113t-77-37q-25 0-45 5t-36 13-31 13-29 6q-16 0-23-11t-10-28h-96z"/><glyph unicode="Ä" horiz-adv-x="692" d="M5 0l220 743h242L687 0H486l-30 118H233L204 0H5zm273 292h133l-67 286-66-286zm114 495q-24 0-24 23v111q0 25 24 25h90q11 0 17-7t6-18V810q0-23-23-23h-90zm-197 0q-24 0-24 23v111q0 25 24 25h90q11 0 17-7t6-18V810q0-23-23-23h-90z"/><glyph unicode="Å" horiz-adv-x="692" d="M5 0l220 743h242L687 0H486l-30 118H233L204 0H5zm273 292h133l-67 286-66-286zm67 478q-64 0-98 25t-34 92q0 66 34 92t98 26q65 0 98-26t33-92q0-66-32-91t-99-26zm0 69q23 0 33 10t10 38q0 27-10 38t-33 11q-22 0-33-11t-11-38q0-27 11-37t33-11z"/><glyph unicode="Æ" horiz-adv-x="992" d="M659-6q-90 0-137 24t-58 93l-1 7H261L194 0H5l264 514q46 89 98 139t121 70 161 20q94 0 176-5t131-11V564H689q-29 0-40-12t-12-36v-58l269-10V294l-269-10v-56q0-26 9-37t24-13 29-2h257V14Q893 6 821 0T659-6zM346 282h117v245L346 282z"/><glyph unicode="Ç" horiz-adv-x="589" d="M309-6Q246-6 196 9t-86 55-55 115-19 195q0 116 20 190t56 114 87 56 110 16q62 0 109-6t81-16 54-18V559q-19 4-49 8t-68 6-84 3q-34 0-57-7t-38-28-20-61-7-108q0-60 5-100t18-62 37-32 64-10q76 0 123 2t76 7V26q-25-10-58-17T416-2 309-6zm-48-197v79l15 3q17 3 24 10t8 17q0 10-7 18t-25 14l75 15q30 0 56-16t26-54q0-40-27-63t-86-23h-59zm15 141l50 82h86l-50-82h-86z"/><glyph unicode="È" horiz-adv-x="604" d="M251-6q-24 0-57 5t-65 22-53 52-21 98v388q0 54 17 90t44 56 60 29 64 9q84 0 144-2t105-6 79-7V564H300q-25 0-38-11t-13-33v-62l269-10V294l-269-10v-56q0-18 5-29t16-17 22-6h276V12q-43-6-98-10T358-4 251-6zm31 797L174 934h154l68-143H282z"/><glyph unicode="É" horiz-adv-x="604" d="M251-6q-24 0-57 5t-65 22-53 52-21 98v388q0 54 17 90t44 56 60 29 64 9q84 0 144-2t105-6 79-7V564H300q-25 0-38-11t-13-33v-62l269-10V294l-269-10v-56q0-18 5-29t16-17 22-6h276V12q-43-6-98-10T358-4 251-6zm13 797l68 143h154L378 791H264z"/><glyph unicode="Ê" horiz-adv-x="604" d="M251-6q-24 0-57 5t-65 22-53 52-21 98v388q0 54 17 90t44 56 60 29 64 9q84 0 144-2t105-6 79-7V564H300q-25 0-38-11t-13-33v-62l269-10V294l-269-10v-56q0-18 5-29t16-17 22-6h276V12q-43-6-98-10T358-4 251-6zm-99 797l100 146h131l91-146H363l-49 61-50-61H152z"/><glyph unicode="Ë" horiz-adv-x="604" d="M251-6q-24 0-57 5t-65 22-53 52-21 98v388q0 54 17 90t44 56 60 29 64 9q84 0 144-2t105-6 79-7V564H300q-25 0-38-11t-13-33v-62l269-10V294l-269-10v-56q0-18 5-29t16-17 22-6h276V12q-43-6-98-10T358-4 251-6zm111 793q-24 0-24 23v111q0 25 24 25h90q11 0 17-7t6-18V810q0-23-23-23h-90zm-197 0q-24 0-24 23v111q0 25 24 25h90q11 0 17-7t6-18V810q0-23-23-23h-90z"/><glyph unicode="Ì" horiz-adv-x="304" d="M55 0v743h194V0H55zm65 791L12 934h154l68-143H120z"/><glyph unicode="Í" horiz-adv-x="304" d="M55 0v743h194V0H55zm47 791l68 143h154L216 791H102z"/><glyph unicode="Î" horiz-adv-x="304" d="M55 0v743h194V0H55zm-65 791L90 937h131l91-146H201l-49 61-50-61H-10z"/><glyph unicode="Ï" horiz-adv-x="304" d="M55 0v743h194V0H55zm145 787q-24 0-24 23v111q0 25 24 25h90q11 0 17-7t6-18V810q0-23-23-23h-90zM3 787q-24 0-24 23v111q0 25 24 25h90q11 0 17-7t6-18V810q0-23-23-23H3z"/><glyph unicode="Ð" horiz-adv-x="688" d="M10 311v124h324V311H10zM55 0v743h328q81 0 133-28t82-80 42-118 12-146q0-131-29-212T534 39 383 0H55zm194 174h114q37 0 57 20t29 63 9 114q0 66-6 105t-19 60-30 26-40 7H249V174z"/><glyph unicode="Ñ" horiz-adv-x="719" d="M55 0v743h154l261-414v414h194V0H510L249 414V0H55zm91 777q4 54 19 85t39 46 53 14q26 0 45-5t34-13 30-13 31-6q15 0 22 11t9 33h96q-4-77-31-113t-77-37q-25 0-45 5t-36 13-31 13-29 6q-16 0-23-11t-10-28h-96z"/><glyph unicode="Ò" horiz-adv-x="708" d="M354-6Q275-6 216 9T116 65 56 179 36 372q0 118 20 192t60 115 99 55 139 16q79 0 138-15t100-56 60-114 20-193q0-118-20-192T592 65t-99-55T354-6zm0 174q38 0 62 9t37 31 19 62 6 102q0 65-5 105t-19 61-38 30-62 8q-37 0-61-8t-38-29-19-62-6-105q0-62 5-102t19-62 38-31 62-9zm-32 623L214 934h154l68-143H322z"/><glyph unicode="Ó" horiz-adv-x="708" d="M354-6Q275-6 216 9T116 65 56 179 36 372q0 118 20 192t60 115 99 55 139 16q79 0 138-15t100-56 60-114 20-193q0-118-20-192T592 65t-99-55T354-6zm0 174q38 0 62 9t37 31 19 62 6 102q0 65-5 105t-19 61-38 30-62 8q-37 0-61-8t-38-29-19-62-6-105q0-62 5-102t19-62 38-31 62-9zm-50 623l68 143h154L418 791H304z"/><glyph unicode="Ô" horiz-adv-x="708" d="M354-6Q275-6 216 9T116 65 56 179 36 372q0 118 20 192t60 115 99 55 139 16q79 0 138-15t100-56 60-114 20-193q0-118-20-192T592 65t-99-55T354-6zm0 174q38 0 62 9t37 31 19 62 6 102q0 65-5 105t-19 61-38 30-62 8q-37 0-61-8t-38-29-19-62-6-105q0-62 5-102t19-62 38-31 62-9zM192 791l100 146h131l91-146H403l-49 61-50-61H192z"/><glyph unicode="Õ" horiz-adv-x="708" d="M354-6Q275-6 216 9T116 65 56 179 36 372q0 118 20 192t60 115 99 55 139 16q79 0 138-15t100-56 60-114 20-193q0-118-20-192T592 65t-99-55T354-6zm0 174q38 0 62 9t37 31 19 62 6 102q0 65-5 105t-19 61-38 30-62 8q-37 0-61-8t-38-29-19-62-6-105q0-62 5-102t19-62 38-31 62-9zM156 777q4 54 19 85t39 46 53 14q26 0 45-5t34-13 30-13 31-6q15 0 22 11t9 33h96q-4-77-31-113t-77-37q-25 0-45 5t-36 13-31 13-29 6q-16 0-23-11t-10-28h-96z"/><glyph unicode="Ö" horiz-adv-x="708" d="M354-6Q275-6 216 9T116 65 56 179 36 372q0 118 20 192t60 115 99 55 139 16q79 0 138-15t100-56 60-114 20-193q0-118-20-192T592 65t-99-55T354-6zm0 174q38 0 62 9t37 31 19 62 6 102q0 65-5 105t-19 61-38 30-62 8q-37 0-61-8t-38-29-19-62-6-105q0-62 5-102t19-62 38-31 62-9zm48 619q-24 0-24 23v111q0 25 24 25h90q11 0 17-7t6-18V810q0-23-23-23h-90zm-197 0q-24 0-24 23v111q0 25 24 25h90q11 0 17-7t6-18V810q0-23-23-23h-90z"/><glyph unicode="×" horiz-adv-x="609" d="M408 143l109 109-317 317L91 460l317-317zm-208 0L91 252l317 317 109-109-317-317z"/><glyph unicode="Ø" horiz-adv-x="708" d="M45 0l494 743h125L170 0H45zm309-6Q275-6 216 9T116 65 56 179 36 372q0 118 20 192t60 115 99 55 139 16q79 0 138-15t100-56 60-114 20-193q0-118-20-192T592 65t-99-55T354-6zm0 174q38 0 62 9t37 31 19 62 6 102q0 65-5 105t-19 61-38 30-62 8q-37 0-61-8t-38-29-19-62-6-105q0-62 5-102t19-62 38-31 62-9z"/><glyph unicode="Ù" horiz-adv-x="692" d="M346-5Q285-5 231 5t-97 37-65 76-24 127v498h194V246q0-26 12-43t37-25 58-9q34 0 58 8t36 26 13 43v497h194V245q0-78-23-127t-66-76-96-37T346-5zm-44 796L194 934h154l68-143H302z"/><glyph unicode="Ú" horiz-adv-x="692" d="M346-5Q285-5 231 5t-97 37-65 76-24 127v498h194V246q0-26 12-43t37-25 58-9q34 0 58 8t36 26 13 43v497h194V245q0-78-23-127t-66-76-96-37T346-5zm-62 796l68 143h154L398 791H284z"/><glyph unicode="Û" horiz-adv-x="692" d="M346-5Q285-5 231 5t-97 37-65 76-24 127v498h194V246q0-26 12-43t37-25 58-9q34 0 58 8t36 26 13 43v497h194V245q0-78-23-127t-66-76-96-37T346-5zM172 791l100 146h131l91-146H383l-49 61-50-61H172z"/><glyph unicode="Ü" horiz-adv-x="692" d="M346-5Q285-5 231 5t-97 37-65 76-24 127v498h194V246q0-26 12-43t37-25 58-9q34 0 58 8t36 26 13 43v497h194V245q0-78-23-127t-66-76-96-37T346-5zm36 792q-24 0-24 23v111q0 25 24 25h90q11 0 17-7t6-18V810q0-23-23-23h-90zm-197 0q-24 0-24 23v111q0 25 24 25h90q11 0 17-7t6-18V810q0-23-23-23h-90z"/><glyph unicode="Ý" horiz-adv-x="634" d="M220 0v211L5 743h201l115-334 115 334h193L414 211V0H220zm51 791l68 143h154L385 791H271z"/><glyph unicode="Þ" horiz-adv-x="603" d="M55 0v743h194V633h102q38 0 78-8t73-34 54-77 21-137q0-87-20-139t-52-79-69-36-74-9q-15 0-31 2t-31 6-29 7-22 5V0H55zm194 288h82q20 0 31 10t16 29 5 48q0 28-5 46t-17 28-30 10h-82V288z"/><glyph unicode="ß" horiz-adv-x="620" d="M411-6q-43 0-80 4t-61 12v131q21-1 44-2t45-1q22 0 35 2t19 7 7 9v6q0 8-8 16t-22 18-29 23-29 29-22 37-9 48q0 28 7 51t19 45 23 40 18 37 8 36q0 41-18 54t-52 14q-45 0-61-24t-17-80V0H34v527q0 68 28 121t89 85 156 31q90 0 145-26t82-74 26-110q0-29-7-54t-19-45-22-36-19-28-8-21q0-9 8-19t22-21 29-25 29-32 22-41 9-53v-27q0-48-20-79t-50-48-64-24-59-7z"/><glyph unicode="à" horiz-adv-x="554" d="M165-6Q103-6 65 31T26 131v55q0 60 44 100t140 40h108v17q0 20-7 31t-28 16-68 5H58v111q42 17 96 28t134 11q68 0 118-15t78-56 28-117V0H358l-30 54q-10-10-24-20t-35-19-46-15-58-6zm102 132q5 0 11 1t12 2 11 3 10 4 7 3v97l-41-6q-28-4-42-14t-15-33v-20q0-13 5-21t16-12 26-4zm-29 505L130 774h154l68-143H238z"/><glyph unicode="á" horiz-adv-x="554" d="M165-6Q103-6 65 31T26 131v55q0 60 44 100t140 40h108v17q0 20-7 31t-28 16-68 5H58v111q42 17 96 28t134 11q68 0 118-15t78-56 28-117V0H358l-30 54q-10-10-24-20t-35-19-46-15-58-6zm102 132q5 0 11 1t12 2 11 3 10 4 7 3v97l-41-6q-28-4-42-14t-15-33v-20q0-13 5-21t16-12 26-4zm-47 505l68 143h154L334 631H220z"/><glyph unicode="â" horiz-adv-x="554" d="M165-6Q103-6 65 31T26 131v55q0 60 44 100t140 40h108v17q0 20-7 31t-28 16-68 5H58v111q42 17 96 28t134 11q68 0 118-15t78-56 28-117V0H358l-30 54q-10-10-24-20t-35-19-46-15-58-6zm102 132q5 0 11 1t12 2 11 3 10 4 7 3v97l-41-6q-28-4-42-14t-15-33v-20q0-13 5-21t16-12 26-4zM108 631l100 146h131l91-146H319l-49 61-50-61H108z"/><glyph unicode="ã" horiz-adv-x="554" d="M165-6Q103-6 65 31T26 131v55q0 60 44 100t140 40h108v17q0 20-7 31t-28 16-68 5H58v111q42 17 96 28t134 11q68 0 118-15t78-56 28-117V0H358l-30 54q-10-10-24-20t-35-19-46-15-58-6zm102 132q5 0 11 1t12 2 11 3 10 4 7 3v97l-41-6q-28-4-42-14t-15-33v-20q0-13 5-21t16-12 26-4zM82 617q4 54 19 85t39 46 53 14q26 0 45-5t34-13 30-13 31-6q15 0 22 11t9 33h96q-4-77-31-113t-77-37q-25 0-45 5t-36 13-31 13-29 6q-16 0-23-11t-10-28H82z"/><glyph unicode="ä" horiz-adv-x="554" d="M165-6Q103-6 65 31T26 131v55q0 60 44 100t140 40h108v17q0 20-7 31t-28 16-68 5H58v111q42 17 96 28t134 11q68 0 118-15t78-56 28-117V0H358l-30 54q-10-10-24-20t-35-19-46-15-58-6zm102 132q5 0 11 1t12 2 11 3 10 4 7 3v97l-41-6q-28-4-42-14t-15-33v-20q0-13 5-21t16-12 26-4zm51 501q-24 0-24 23v111q0 25 24 25h90q11 0 17-7t6-18V650q0-23-23-23h-90zm-197 0q-24 0-24 23v111q0 25 24 25h90q11 0 17-7t6-18V650q0-23-23-23h-90z"/><glyph unicode="å" horiz-adv-x="554" d="M165-6Q103-6 65 31T26 131v55q0 60 44 100t140 40h108v17q0 20-7 31t-28 16-68 5H58v111q42 17 96 28t134 11q68 0 118-15t78-56 28-117V0H358l-30 54q-10-10-24-20t-35-19-46-15-58-6zm102 132q5 0 11 1t12 2 11 3 10 4 7 3v97l-41-6q-28-4-42-14t-15-33v-20q0-13 5-21t16-12 26-4zm4 454q-64 0-98 25t-34 92q0 66 34 92t98 26q65 0 98-26t33-92q0-66-32-91t-99-26zm0 69q23 0 33 10t10 38q0 27-10 38t-33 11q-22 0-33-11t-11-38q0-27 11-37t33-11z"/><glyph unicode="æ" horiz-adv-x="832" d="M175-6q-55 0-87 21T43 68t-13 65v51q0 38 17 70t59 52 110 20h106v21q0 20-9 30t-28 14-53 4H62v111q47 19 92 29t99 10q56 0 99-13t70-31q28 17 65 32t94 15q75 0 121-17t68-60 22-122q0-82-51-114t-147-32h-83q1-22 9-35t25-19 40-9 57-2h131V25Q721 6 663 0T542-6q-34 0-68 9t-63 26-44 41q-18-18-46-35T255 6 175-6zm96 132q17 0 32 7t26 14q-4 13-7 37t-3 52l-63-12q-17-3-24-15t-8-24v-19q0-17 6-25t18-12 23-3zm240 196h77q14 0 20 5t9 12 2 15q0 21-7 32t-19 14-28 4q-23 0-34-8t-16-27-4-47z"/><glyph unicode="ç" horiz-adv-x="490" d="M263-6q-51 0-94 13T95 52t-48 83-17 131q0 82 15 136t46 87 75 45 103 14q54 0 97-7t97-24V406H332q-43 0-66-11t-33-41-9-85q0-56 8-84t32-37 70-9h136V30q-25-10-60-18T336-1t-73-5zm-72-197v79l15 3q17 3 24 10t8 17q0 10-7 18t-25 14l75 15q30 0 56-16t26-54q0-40-27-63t-86-23h-59zm15 141l50 82h86l-50-82h-86z"/><glyph unicode="è" horiz-adv-x="535" d="M285-5q-92 0-148 23t-81 82-26 168q0 111 23 171t76 85 147 24q86 0 136-16t71-57 22-118q0-59-23-92t-65-48-99-14h-96q3-24 12-38t33-21 71-6h147V25q-35-10-83-20T285-5zm-65 321h77q20 0 29 9t9 31q0 19-6 31t-19 17-34 6q-19 0-31-8t-19-28-6-58zm18 315L130 774h154l68-143H238z"/><glyph unicode="é" horiz-adv-x="535" d="M285-5q-92 0-148 23t-81 82-26 168q0 111 23 171t76 85 147 24q86 0 136-16t71-57 22-118q0-59-23-92t-65-48-99-14h-96q3-24 12-38t33-21 71-6h147V25q-35-10-83-20T285-5zm-65 321h77q20 0 29 9t9 31q0 19-6 31t-19 17-34 6q-19 0-31-8t-19-28-6-58zm0 315l68 143h154L334 631H220z"/><glyph unicode="ê" horiz-adv-x="535" d="M285-5q-92 0-148 23t-81 82-26 168q0 111 23 171t76 85 147 24q86 0 136-16t71-57 22-118q0-59-23-92t-65-48-99-14h-96q3-24 12-38t33-21 71-6h147V25q-35-10-83-20T285-5zm-65 321h77q20 0 29 9t9 31q0 19-6 31t-19 17-34 6q-19 0-31-8t-19-28-6-58zM108 631l100 146h131l91-146H319l-49 61-50-61H108z"/><glyph unicode="ë" horiz-adv-x="535" d="M285-5q-92 0-148 23t-81 82-26 168q0 111 23 171t76 85 147 24q86 0 136-16t71-57 22-118q0-59-23-92t-65-48-99-14h-96q3-24 12-38t33-21 71-6h147V25q-35-10-83-20T285-5zm-65 321h77q20 0 29 9t9 31q0 19-6 31t-19 17-34 6q-19 0-31-8t-19-28-6-58zm98 311q-24 0-24 23v111q0 25 24 25h90q11 0 17-7t6-18V650q0-23-23-23h-90zm-197 0q-24 0-24 23v111q0 25 24 25h90q11 0 17-7t6-18V650q0-23-23-23h-90z"/><glyph unicode="ì" horiz-adv-x="282" d="M44 0v539h194V0H44zm65 631L1 774h154l68-143H109z"/><glyph unicode="í" horiz-adv-x="282" d="M44 0v539h194V0H44zm47 631l68 143h154L205 631H91z"/><glyph unicode="î" horiz-adv-x="282" d="M44 0v539h194V0H44zm-65 631L79 777h131l91-146H190l-49 61-50-61H-21z"/><glyph unicode="ï" horiz-adv-x="282" d="M44 0v539h194V0H44zm145 627q-24 0-24 23v111q0 25 24 25h90q11 0 17-7t6-18V650q0-23-23-23h-90zm-197 0q-24 0-24 23v111q0 25 24 25h90q11 0 17-7t6-18V650q0-23-23-23H-8z"/><glyph unicode="ð" horiz-adv-x="574" d="M287-5Q215-5 166 9T86 55t-43 83-13 123q0 78 15 129t45 81 72 42 97 12q40 0 72-8t54-24 33-34q26-29 55-53t50-56 21-79q0-78-12-131t-42-85-79-46T287-5zm0 154q19 0 31 3t19 15 10 33 3 62q0 39-3 61t-10 33-19 14-31 4q-19 0-31-3t-19-14-10-33-3-62q0-39 3-61t10-34 19-14 31-4zm257 123l-174 73q0 87-13 145t-42 94-79 50-122 15v114q125 0 208-25t132-83 69-151 21-232zM138 536l-23 60 394 151 23-61-394-150z"/><glyph unicode="ñ" horiz-adv-x="600" d="M44 0v539h162l32-52q25 23 67 42t85 19q70 0 106-26t49-72 13-102V0H364v322q0 21-7 32t-18 15-28 5q-13 0-27-4t-25-11-21-16V0H44zm68 617q4 54 19 85t39 46 53 14q26 0 45-5t34-13 30-13 31-6q15 0 22 11t9 33h96q-4-77-31-113t-77-37q-25 0-45 5t-36 13-31 13-29 6q-16 0-23-11t-10-28h-96z"/><glyph unicode="ò" horiz-adv-x="574" d="M287-5q-72 0-121 15T86 58t-43 85-13 128q0 81 13 134t44 85 79 45 121 13q72 0 121-14t79-45 43-85 14-133q0-78-12-131t-42-85-79-46T287-5zm0 154q19 0 31 3t19 16 10 37 3 67q0 42-3 66t-10 37-19 15-31 4q-19 0-31-3t-19-16-10-36-3-67q0-42 3-67t10-37 19-15 31-4zm-32 482L147 774h154l68-143H255z"/><glyph unicode="ó" horiz-adv-x="574" d="M287-5q-72 0-121 15T86 58t-43 85-13 128q0 81 13 134t44 85 79 45 121 13q72 0 121-14t79-45 43-85 14-133q0-78-12-131t-42-85-79-46T287-5zm0 154q19 0 31 3t19 16 10 37 3 67q0 42-3 66t-10 37-19 15-31 4q-19 0-31-3t-19-16-10-36-3-67q0-42 3-67t10-37 19-15 31-4zm-50 482l68 143h154L351 631H237z"/><glyph unicode="ô" horiz-adv-x="574" d="M287-5q-72 0-121 15T86 58t-43 85-13 128q0 81 13 134t44 85 79 45 121 13q72 0 121-14t79-45 43-85 14-133q0-78-12-131t-42-85-79-46T287-5zm0 154q19 0 31 3t19 16 10 37 3 67q0 42-3 66t-10 37-19 15-31 4q-19 0-31-3t-19-16-10-36-3-67q0-42 3-67t10-37 19-15 31-4zM125 631l100 146h131l91-146H336l-49 61-50-61H125z"/><glyph unicode="õ" horiz-adv-x="574" d="M287-5q-72 0-121 15T86 58t-43 85-13 128q0 81 13 134t44 85 79 45 121 13q72 0 121-14t79-45 43-85 14-133q0-78-12-131t-42-85-79-46T287-5zm0 154q19 0 31 3t19 16 10 37 3 67q0 42-3 66t-10 37-19 15-31 4q-19 0-31-3t-19-16-10-36-3-67q0-42 3-67t10-37 19-15 31-4zM99 617q4 54 19 85t39 46 53 14q26 0 45-5t34-13 30-13 31-6q15 0 22 11t9 33h96q-4-77-31-113t-77-37q-25 0-45 5t-36 13-31 13-29 6q-16 0-23-11t-10-28H99z"/><glyph unicode="ö" horiz-adv-x="574" d="M287-5q-72 0-121 15T86 58t-43 85-13 128q0 81 13 134t44 85 79 45 121 13q72 0 121-14t79-45 43-85 14-133q0-78-12-131t-42-85-79-46T287-5zm0 154q19 0 31 3t19 16 10 37 3 67q0 42-3 66t-10 37-19 15-31 4q-19 0-31-3t-19-16-10-36-3-67q0-42 3-67t10-37 19-15 31-4zm48 478q-24 0-24 23v111q0 25 24 25h90q11 0 17-7t6-18V650q0-23-23-23h-90zm-197 0q-24 0-24 23v111q0 25 24 25h90q11 0 17-7t6-18V650q0-23-23-23h-90z"/><glyph unicode="÷" horiz-adv-x="609" d="M248 493q-24 0-24 23v97q0 25 24 25h112q25 0 25-25v-97q0-13-7-18t-18-5H248zm0-419q-24 0-24 23v97q0 25 24 25h112q25 0 25-25V97q0-13-7-18t-18-5H248zM80 279v154h448V279H80z"/><glyph unicode="ø" horiz-adv-x="574" d="M13 0l462 539h86L99 0H13zm274-5q-72 0-121 15T86 58t-43 85-13 128q0 81 13 134t44 85 79 45 121 13q72 0 121-14t79-45 43-85 14-133q0-78-12-131t-42-85-79-46T287-5zm0 154q19 0 31 3t19 16 10 37 3 67q0 42-3 66t-10 37-19 15-31 4q-19 0-31-3t-19-16-10-36-3-67q0-42 3-67t10-37 19-15 31-4z"/><glyph unicode="ù" horiz-adv-x="600" d="M192-6Q122-6 82 38T42 156v383h194V217q0-31 15-41t38-11q15 0 38 9t35 22v343h194V0H394l-32 52q-34-22-77-40T192-6zm74 637L158 774h154l68-143H266z"/><glyph unicode="ú" horiz-adv-x="600" d="M192-6Q122-6 82 38T42 156v383h194V217q0-31 15-41t38-11q15 0 38 9t35 22v343h194V0H394l-32 52q-34-22-77-40T192-6zm56 637l68 143h154L362 631H248z"/><glyph unicode="û" horiz-adv-x="600" d="M192-6Q122-6 82 38T42 156v383h194V217q0-31 15-41t38-11q15 0 38 9t35 22v343h194V0H394l-32 52q-34-22-77-40T192-6zm-56 637l100 146h131l91-146H347l-49 61-50-61H136z"/><glyph unicode="ü" horiz-adv-x="600" d="M192-6Q122-6 82 38T42 156v383h194V217q0-31 15-41t38-11q15 0 38 9t35 22v343h194V0H394l-32 52q-34-22-77-40T192-6zm154 633q-24 0-24 23v111q0 25 24 25h90q11 0 17-7t6-18V650q0-23-23-23h-90zm-197 0q-24 0-24 23v111q0 25 24 25h90q11 0 17-7t6-18V650q0-23-23-23h-90z"/><glyph unicode="ý" horiz-adv-x="587" d="M228-237L280 0q-58 0-96 20t-61 56-32 80L8 539h201l61-344q2-12 6-19t11-12 13-6 13-2l69 383h197L442-138l-50-99H228zm2 868l68 143h154L344 631H230z"/><glyph unicode="þ" horiz-adv-x="590" d="M44-237V763h194V490q20 17 39 30t41 20 52 8q45 0 80-17t59-51 38-88 13-124q0-84-17-146t-59-96T370-8q-34 0-69 6t-63 19v-254H44zm260 388q14 0 28 7t24 31 10 69q0 55-7 84t-20 40-34 11q-21 0-39-6t-28-14V166q10-7 28-11t38-4z"/><glyph unicode="ÿ" horiz-adv-x="587" d="M228-237L280 0q-58 0-96 20t-61 56-32 80L8 539h201l61-344q2-12 6-19t11-12 13-6 13-2l69 383h197L442-138l-50-99H228zm100 864q-24 0-24 23v111q0 25 24 25h90q11 0 17-7t6-18V650q0-23-23-23h-90zm-197 0q-24 0-24 23v111q0 25 24 25h90q11 0 17-7t6-18V650q0-23-23-23h-90z"/><glyph unicode="–" horiz-adv-x="513" d="M20 212v155h473V212H20z"/><glyph unicode="—" horiz-adv-x="736" d="M20 212v155h696V212H20z"/><glyph unicode="‘" horiz-adv-x="250" d="M69 480q-13 0-18 8t-6 19v160q0 43 20 64t48 29 54 8q18 0 28-1t15-3v-72q-22 0-26-11t-5-20v-15h11q11 0 18-6t7-19V507q0-27-25-27H69z"/><glyph unicode="’" horiz-adv-x="250" d="M83 472q-18 0-26 1t-17 3v72q23 0 27 12t4 19v15H60q-10 0-17 6t-8 19v114q0 27 25 27h121q14 0 19-8t5-19V573q0-43-20-64t-48-29-54-8z"/><glyph unicode="‚" horiz-adv-x="250" d="M83-128q-18 0-30 2t-13 2v72q23 0 27 12t4 19v15H60Q50-6 43 0t-8 19v114q0 27 25 27h121q14 0 19-8t5-19V-27q0-43-20-64t-48-29-54-8z"/><glyph unicode="“" horiz-adv-x="450" d="M69 480q-13 0-18 8t-6 19v160q0 43 20 64t48 29 54 8q18 0 28-1t15-3v-72q-22 0-26-11t-5-20v-15h11q11 0 18-6t7-19V507q0-27-25-27H69zm200 0q-13 0-18 8t-6 19v160q0 43 20 64t48 29 54 8q18 0 28-1t15-3v-72q-22 0-26-11t-5-20v-15h11q11 0 18-6t7-19V507q0-27-25-27H269z"/><glyph unicode="”" horiz-adv-x="450" d="M83 472q-18 0-26 1t-17 3v72q23 0 27 12t4 19v15H60q-10 0-17 6t-8 19v114q0 27 25 27h121q14 0 19-8t5-19V573q0-43-20-64t-48-29-54-8zm200 0q-18 0-26 1t-17 3v72q23 0 27 12t4 19v15h-11q-10 0-17 6t-8 19v114q0 27 25 27h121q14 0 19-8t5-19V573q0-43-20-64t-48-29-54-8z"/><glyph unicode="„" horiz-adv-x="450" d="M83-128q-18 0-30 2t-13 2v72q23 0 27 12t4 19v15H60Q50-6 43 0t-8 19v114q0 27 25 27h121q14 0 19-8t5-19V-27q0-43-20-64t-48-29-54-8zm200 0q-18 0-30 2t-13 2v72q23 0 27 12t4 19v15h-11q-10 0-17 6t-8 19v114q0 27 25 27h121q14 0 19-8t5-19V-27q0-43-20-64t-48-29-54-8z"/><glyph unicode="•" horiz-adv-x="307" d="M81 274q-33 0-33 32v150q0 16 8 25t25 10h144q35 0 35-35V306q0-18-10-25t-25-7H81z"/><glyph unicode="‹" horiz-adv-x="376" d="M259 56L28 284l226 223 97-95-130-128 131-130-93-98z"/><glyph unicode="›" horiz-adv-x="376" d="M121 56l-93 98 131 130L29 412l97 95 226-223L121 56z"/></font>
</defs>
</svg>
