<svg width="512" height="512" xmlns="http://www.w3.org/2000/svg" clip-rule="evenodd"><path fill="none" d="M-1-1h582v402H-1z"/><g fill="#b57614"><path d="M256 0c-69.526 0-78.244.295-105.549 1.541-27.248 1.243-45.858 5.57-62.142 11.899-16.834 6.542-31.111 15.296-45.342 29.528C28.735 57.199 19.981 71.476 13.439 88.31 7.11 104.593 2.783 123.203 1.54 150.451.294 177.756 0 186.474 0 256c0 69.524.294 78.242 1.54 105.547 1.243 27.248 5.57 45.858 11.899 62.141 6.542 16.834 15.296 31.111 29.528 45.344 14.231 14.231 28.508 22.985 45.342 29.527 16.284 6.328 34.894 10.656 62.142 11.899 27.305 1.245 36.023 1.54 105.549 1.54 69.524 0 78.242-.295 105.547-1.54 27.248-1.243 45.858-5.571 62.141-11.899 16.834-6.542 31.111-15.296 45.344-29.527 14.231-14.233 22.985-28.51 29.527-45.344 6.328-16.283 10.656-34.893 11.899-62.141 1.245-27.305 1.54-36.023 1.54-105.547 0-69.526-.295-78.244-1.54-105.549-1.243-27.248-5.571-45.858-11.899-62.141-6.542-16.834-15.296-31.111-29.527-45.342-14.233-14.232-28.51-22.986-45.344-29.528-16.283-6.329-34.893-10.656-62.141-11.899C334.242.295 325.524 0 256 0zm0 46.127c68.354 0 76.451.26 103.445 1.492 24.959 1.139 38.514 5.309 47.535 8.814 11.949 4.644 20.477 10.192 29.435 19.15 8.959 8.958 14.506 17.487 19.15 29.435 3.506 9.021 7.676 22.576 8.815 47.535 1.231 26.995 1.492 35.092 1.492 103.447 0 68.354-.261 76.451-1.492 103.445-1.139 24.959-5.309 38.514-8.815 47.535-4.644 11.949-10.191 20.477-19.15 29.435-8.958 8.959-17.486 14.506-29.435 19.15-9.021 3.506-22.576 7.676-47.535 8.814-26.99 1.232-35.086 1.493-103.445 1.493-68.361 0-76.455-.261-103.447-1.493-24.959-1.138-38.514-5.308-47.535-8.814-11.949-4.644-20.477-10.191-29.436-19.15-8.958-8.958-14.506-17.486-19.149-29.435-3.506-9.021-7.676-22.576-8.815-47.535-1.232-26.994-1.492-35.091-1.492-103.445 0-68.355.26-76.452 1.492-103.447 1.139-24.959 5.309-38.514 8.815-47.535 4.643-11.948 10.191-20.477 19.149-29.435 8.959-8.958 17.487-14.506 29.436-19.15 9.021-3.505 22.576-7.675 47.535-8.814 26.995-1.232 35.092-1.492 103.447-1.492z"/><path d="M256.487 341.33c-47.128.27-85.55-37.717-85.82-84.843-.268-47.128 37.718-85.55 84.846-85.82 47.126-.268 85.549 37.718 85.818 84.846.268 47.126-37.718 85.549-84.844 85.818zm-1.237-216.788c-72.603.414-131.122 59.605-130.708 132.208.414 72.6 59.605 131.12 132.208 130.706 72.6-.414 131.12-59.605 130.706-132.206-.414-72.603-59.605-131.122-132.206-130.708zm168.122-5.196c0 16.967-13.754 30.72-30.72 30.72s-30.72-13.753-30.72-30.72c0-16.966 13.754-30.719 30.72-30.719s30.72 13.753 30.72 30.719z"/></g></svg>