<svg width="56.69" height="56.69" xmlns="http://www.w3.org/2000/svg">

 <g>
  <title>background</title>
  <rect fill="none" id="canvas_background" height="402" width="582" y="-1" x="-1"/>
 </g>
 <g>
  <title>Layer 1</title>
  <path fill="#b57614" id="svg_1" d="m28.3411,3.813c-13.5932,0 -24.613,11.019 -24.613,24.6122s11.0198,24.6129 24.613,24.6129c13.5936,0 24.6133,-11.0197 24.6133,-24.6129s-11.0198,-24.6122 -24.6133,-24.6122zm9.9853,36.2266c-0.3979,0 -0.6699,-0.138 -1.0418,-0.3646c-3.5675,-2.158 -8.015,-3.2921 -12.7356,-3.2921c-2.6336,0 -5.2842,0.3374 -7.7634,0.8533c-0.403,0.0876 -0.9103,0.2436 -1.2132,0.2436c-0.9347,0 -1.558,-0.7431 -1.558,-1.5468c0,-1.0348 0.5966,-1.549 1.3389,-1.691c3.04,-0.6927 6.0676,-1.0883 9.2123,-1.0883c5.3857,0 10.1859,1.2357 14.3165,3.7111c0.6147,0.3591 0.975,0.7253 0.975,1.6359c0.0001,0.8873 -0.7212,1.5389 -1.5307,1.5389zm2.682,-6.5145c-0.5341,0 -0.8704,-0.2156 -1.233,-0.4266c-4.0038,-2.376 -9.5529,-3.9546 -15.6295,-3.9546c-3.1168,0 -5.8066,0.436 -8.0333,1.0294c-0.4798,0.1318 -0.749,0.2738 -1.1977,0.2738c-1.0585,0 -1.9226,-0.8626 -1.9226,-1.9296c0,-1.0465 0.5073,-1.7671 1.5309,-2.0557c2.767,-0.7598 5.5921,-1.3459 9.7045,-1.3459c6.4427,0 12.6751,1.6046 17.5749,4.5368c0.8215,0.4716 1.124,1.0689 1.124,1.9454c0.0002,1.066 -0.8485,1.927 -1.9182,1.927zm3.0536,-7.5763c-0.5011,0 -0.7986,-0.1218 -1.2683,-0.379c-4.4549,-2.6711 -11.3684,-4.1423 -18.0547,-4.1423c-3.3375,0 -6.7274,0.3394 -9.8325,1.1818c-0.3576,0.09 -0.8094,0.2692 -1.2621,0.2692c-1.3129,0 -2.3201,-1.0386 -2.3201,-2.3515c0,-1.3378 0.8289,-2.0886 1.7232,-2.3528c3.5085,-1.0336 7.4247,-1.5153 11.6823,-1.5153c7.2273,0 14.8312,1.4866 20.3857,4.7489c0.7485,0.424 1.2683,1.0635 1.2683,2.2352c-0.0001,1.3416 -1.0787,2.3058 -2.3218,2.3058z"/>
 </g>
</svg>